<!-- Generated by IcoMoon.io -->
<svg version="1.1" xmlns="http://www.w3.org/2000/svg" width="104" height="32" viewBox="0 0 104 32">
<title>logo</title>
<path d="M10.322 13.696c-1.033-0.238-2.048-0.494-3.072-0.768-0.923-0.256-1.39-0.695-1.39-1.317 0-0.695 0.622-1.042 1.865-1.042 0.622 0 1.216 0.119 1.792 0.357 0.741 0.311 1.591 0.137 2.158-0.43l1.947-1.938c-0.512-0.466-1.106-0.887-1.783-1.271-0.622-0.357-1.317-0.649-2.094-0.896-0.713-0.192-1.417-0.293-2.112-0.293-1.234 0-2.377 0.21-3.419 0.631-1.015 0.411-1.847 1.051-2.487 1.92-0.631 0.869-0.942 1.929-0.942 3.191 0 1.637 0.384 2.843 1.152 3.639 0.777 0.805 1.728 1.353 2.862 1.646 1.399 0.366 2.414 0.622 3.054 0.768 0.905 0.238 1.353 0.613 1.353 1.115 0 0.96-0.814 1.445-2.45 1.445-0.896 0-1.71-0.174-2.45-0.53-1.006-0.485-2.213-0.183-2.889 0.704l-1.417 1.865c0.786 0.594 1.545 1.070 2.267 1.426 0.695 0.357 1.445 0.603 2.249 0.75 0.795 0.165 1.701 0.238 2.688 0.238 1.189 0 2.341-0.238 3.447-0.704 1.106-0.448 1.993-1.125 2.661-2.039 0.658-0.905 0.997-1.975 0.997-3.227 0-1.673-0.384-2.889-1.152-3.666-0.759-0.768-1.701-1.289-2.834-1.573z"></path>
<path d="M25.582 6.080c-0.814 0-1.609 0.155-2.405 0.466-0.777 0.311-1.426 0.731-1.957 1.271v-5.467c0-1.298-1.051-2.35-2.359-2.35l-3.136 0.009v24.366l5.486-0.037v-10.149c0-1.051 0.247-1.838 0.741-2.368 0.475-0.521 1.143-0.786 1.993-0.786 0.869 0 1.545 0.265 2.021 0.786 0.475 0.53 0.722 1.317 0.722 2.368v7.241c0 1.618 1.317 2.926 2.935 2.926l2.56-0.009v-10.533c0-5.157-2.194-7.735-6.601-7.735z"></path>
<path d="M72.283 8.759c-0.969-0.887-2.057-1.545-3.246-1.975-1.198-0.466-2.469-0.704-3.803-0.704-1.746 0-3.401 0.411-4.955 1.234-1.554 0.814-2.789 1.929-3.703 3.365-0.914 1.399-1.381 2.962-1.39 4.718v15.689l2.011 0.009c1.902 0.009 3.456-1.536 3.456-3.447v-3.785l0.786 0.347c1.234 0.448 2.496 0.667 3.785 0.667 1.317 0 2.587-0.219 3.803-0.667s2.295-1.106 3.237-1.975c0.951-0.859 1.682-1.856 2.213-2.999 0.539-1.152 0.805-2.395 0.805-3.721 0-1.362-0.265-2.606-0.786-3.739-0.512-1.134-1.253-2.139-2.213-3.017zM69.193 17.71c-0.421 0.677-0.987 1.216-1.701 1.609-0.713 0.402-1.463 0.603-2.267 0.603s-1.545-0.201-2.249-0.603c-0.713-0.402-1.271-0.933-1.701-1.609-0.421-0.649-0.631-1.381-0.631-2.194 0-1.225 0.457-2.277 1.371-3.154 0.905-0.878 1.975-1.317 3.209-1.317 1.243 0 2.322 0.439 3.227 1.317 0.914 0.896 1.371 1.947 1.371 3.154 0.009 0.795-0.21 1.527-0.631 2.194z"></path>
<path d="M103.186 11.721c-0.521-1.143-1.262-2.149-2.213-3.017-0.96-0.869-2.039-1.518-3.237-1.957-1.234-0.457-2.505-0.686-3.803-0.686-1.289 0-2.551 0.229-3.785 0.686-1.216 0.457-2.295 1.115-3.237 1.975-0.942 0.85-1.673 1.847-2.213 2.999s-0.805 2.405-0.805 3.739c0 1.783 0.466 3.392 1.39 4.837 0.914 1.426 2.149 2.551 3.703 3.374s3.209 1.234 4.955 1.234c1.335 0 2.606-0.238 3.803-0.704 1.189-0.448 2.267-1.106 3.237-1.975 0.96-0.878 1.701-1.893 2.231-3.035 0.521-1.134 0.786-2.377 0.786-3.739-0.009-1.326-0.274-2.578-0.814-3.73zM97.152 18.615c-0.905 0.878-1.975 1.317-3.227 1.317-1.234 0-2.304-0.439-3.209-1.317-0.914-0.878-1.371-1.929-1.371-3.154 0-0.795 0.21-1.536 0.631-2.213s0.987-1.216 1.701-1.609c0.713-0.402 1.454-0.603 2.249-0.603 0.814 0 1.563 0.201 2.267 0.603s1.271 0.942 1.701 1.609c0.421 0.677 0.631 1.408 0.631 2.213 0 1.225-0.457 2.277-1.371 3.154z"></path>
<path d="M76.946 8.037v12.544c0 2.094 1.701 3.794 3.794 3.794h1.664v-16.384c-0.768 0.576-1.719 0.933-2.752 0.933-1.015 0.009-1.947-0.329-2.706-0.887z"></path>
<path d="M79.653 1.536c-1.536 0-2.789 1.243-2.789 2.789 0 1.536 1.243 2.789 2.789 2.789 1.536 0 2.789-1.243 2.789-2.789-0.009-1.536-1.253-2.789-2.789-2.789z"></path>
<path d="M52.937 11.721c-0.521-1.143-1.262-2.149-2.213-3.017-0.96-0.869-2.039-1.518-3.237-1.957-1.234-0.457-2.505-0.686-3.803-0.686-1.289 0-2.551 0.229-3.785 0.686-1.216 0.457-2.295 1.115-3.237 1.975-0.942 0.85-1.673 1.847-2.213 2.999s-0.805 2.405-0.805 3.739c0 1.783 0.466 3.392 1.39 4.837 0.914 1.426 2.149 2.551 3.703 3.374s3.209 1.234 4.955 1.234c1.335 0 2.606-0.238 3.803-0.704 1.189-0.448 2.267-1.106 3.237-1.975 0.96-0.878 1.701-1.893 2.231-3.035 0.521-1.134 0.786-2.377 0.786-3.739-0.009-1.326-0.274-2.578-0.814-3.73zM46.903 18.615c-0.905 0.878-1.975 1.317-3.227 1.317-1.234 0-2.304-0.439-3.209-1.317-0.914-0.878-1.371-1.929-1.371-3.154 0-0.795 0.21-1.536 0.631-2.213s0.987-1.216 1.701-1.609c0.713-0.402 1.454-0.603 2.249-0.603 0.814 0 1.563 0.201 2.267 0.603s1.271 0.942 1.701 1.609c0.421 0.677 0.631 1.408 0.631 2.213 0 1.225-0.457 2.277-1.371 3.154z"></path>
</svg>
